# xmcd CD database file generated by OrangeCD 6.4
#
# Track frame offsets:
#	150
#	20376
#	39565
#	55382
#	73477
#	88751
#	106038
#	125749
#	142966
#	156185
#	173750
#	189086
#
# Disc length: 2739 seconds
#
# Revision: 0
# Processed by: cddbd v1.5.2PL0 Copyright (c) Steve Scherf et al.
# Submitted via: OrangeCD 6.4
#
DISCID=a10ab10c
DTITLE=Igor Prado Band - Watch Me Move!
DYEAR=2010
DGENRE=
TTITLE0=Drive At Home
TTITLE1=Watch Me Move
TTITLE2=Knock On Wood
TTITLE3=Mess Around
TTITLE4=I Got Loaded
TTITLE5=Nobodys Baby
TTITLE6=Leaps And Bounds
TTITLE7=Slow Down Little Eva
TTITLE8=Signed, Sealed, Delivered
TTITLE9=Genes Groove
TTITLE10=Shake It Baby
TTITLE11=Ice Man Groove
EXTD=
EXTT0=
EXTT1=
EXTT2=
EXTT3=
EXTT4=
EXTT5=
EXTT6=
EXTT7=
EXTT8=
EXTT9=
EXTT10=
EXTT11=
PLAYORDER=
